<svg id="Layer_1" data-name="Layer 1" xmlns="http://www.w3.org/2000/svg" xmlns:xlink="http://www.w3.org/1999/xlink" viewBox="0 0 972.46 763.89"><defs><style>.cls-1,.cls-9{fill:#accddf;}.cls-1{opacity:0.5;}.cls-16,.cls-17,.cls-2,.cls-24,.cls-4{fill:#076ca0;}.cls-2{opacity:0.47;}.cls-3{fill:#144a69;}.cls-5{fill:#7cb9da;}.cls-6{fill:#aecfe1;}.cls-7{fill:#fdc652;}.cls-8{fill:#5ca4ce;}.cls-9{opacity:0.24;}.cls-10{clip-path:url(#clip-path);}.cls-11{fill:#fd2929;}.cls-12,.cls-22{fill:#fff;}.cls-12{opacity:0.77;}.cls-13{clip-path:url(#clip-path-2);}.cls-14{fill:#175d81;}.cls-15,.cls-18,.cls-19,.cls-20,.cls-21,.cls-26,.cls-27{fill:none;}.cls-15,.cls-21{stroke:#fdc652;}.cls-15,.cls-18,.cls-19,.cls-20,.cls-21,.cls-24,.cls-26,.cls-27{stroke-miterlimit:10;}.cls-15,.cls-18,.cls-19,.cls-27{stroke-width:2px;}.cls-16{opacity:0.35;}.cls-17{opacity:0.56;}.cls-18,.cls-20{stroke:#fd2929;}.cls-18,.cls-20,.cls-21,.cls-26{stroke-linecap:round;}.cls-19{stroke:#5ca4ce;}.cls-20{stroke-width:1.5px;}.cls-23{fill:#fdac00;}.cls-24{font-size:94.46px;font-family:Poppins-Regular, Poppins;}.cls-24,.cls-27{stroke:#076ca0;}.cls-24,.cls-26{stroke-width:3px;}.cls-25{clip-path:url(#clip-path-3);}.cls-26{stroke:#175d81;}.cls-28{clip-path:url(#clip-path-4);}.cls-29{clip-path:url(#clip-path-5);}.cls-30{clip-path:url(#clip-path-6);}.cls-31{clip-path:url(#clip-path-7);}.cls-32{clip-path:url(#clip-path-8);}.cls-33{fill:#5ba6d0;opacity:0.62;}.cls-34{fill:#013553;}.cls-35{clip-path:url(#clip-path-9);}.cls-36{clip-path:url(#clip-path-10);}.cls-37{clip-path:url(#clip-path-11);}.cls-38{clip-path:url(#clip-path-12);}</style><clipPath id="clip-path" transform="translate(-21.68 -28.59)"><rect id="z" class="cls-1" x="61.53" y="28.59" width="717.67" height="429.63" rx="26.72"/></clipPath><clipPath id="clip-path-2" transform="translate(-21.68 -28.59)"><rect class="cls-2" x="580.99" y="366.35" width="181.07" height="123.73" rx="8.13"/></clipPath><clipPath id="clip-path-3" transform="translate(-21.68 -28.59)"><rect class="cls-5" x="173.25" y="104.46" width="70.42" height="50.2" rx="5.96"/></clipPath><clipPath id="clip-path-4" transform="translate(-21.68 -28.59)"><path class="cls-6" d="M535.48,459.73V443s3.1,2.34,6.28,1,5.7-6,5.87-11.57-2.51-14.58-2.51-14.58,12.07-7.88,13.07-15.76-2.51-16.94-8.72-20.29-14.58-.67-17.1,2.35a31.58,31.58,0,0,0-4,6.37s-11.74-.84-15.09,1.84-7.54,22.47-14.42,31.19S476,446,471.18,463.25s.33,43.09,6.2,52,7.55,9.72,7.55,9.72l-11.24,28.17,1.51,1.34-1.59,4.19s-7.46.34-11.49,1.43-4.19,3.52-5,7.46.68,9.3,3.69,10.06,4.7-.34,4.87-4,1.76-5.61,3.6-5.87,8.05.26,9.39-1.42,1.93-6.79,2.18-7.29l.25-.51,1.93.59,15.34-27.5s13.5,1.09,19.28-4.94c0,0,1.17,2.93.25,8.8a48.7,48.7,0,0,1-4.94,15.93c-2.52,4.52-11.41,16.18-18.45,57.76s-20.79,127.75-25.15,152.23l3.11,1-1.09,8s-12.75,4.19-16.43,5.53-4,3.36-3.19,4.78,6.87.67,10.23.59,20.54-.17,20.54-.17a9,9,0,0,0,.5-5.37c-.76-2.51-2-3-1.76-5.44a38.91,38.91,0,0,1,.75-4.53l3.61.92,40.82-146.7L535,766.8h4a32,32,0,0,1-.56,5.72,38.28,38.28,0,0,0-1,7.42l.13.63,32.71.14s2.44-.75,1.93-2.51-2.26-2.18-5.36-2.52-18.11-4.1-18.11-4.1V766.8h3.77s4.11-82.74,6.12-113.17,4-57.59,2.27-76.45-2.52-22.89-3.27-26.41-.26-8,1-15.84,4.78-17.36,4.15-25-1.88-8.55-1.51-9.43,7.8,6.42,15.47,11.95,11.44,10.06,15.59,5.66,26.41-32.19,26.41-32.19l-1.64-1.76s1.89-4.53,6.16-5.16,11.82-1.88,11.7-6.29-3.15-8.29-2.89-9.93,7.79-6.92,8.92-10.18-1-3.27-3.89-1-17,13.71-21.25,18.48a60.43,60.43,0,0,0-5.91,7.42L589.55,497.2S567.67,463.76,535.48,459.73Z"/></clipPath><clipPath id="clip-path-5" transform="translate(-21.68 -28.59)"><path class="cls-7" d="M523.66,459.73H543s60.36-8.8,61.11-8.3,5.79,26,5.79,26l8.8,8.43s26.91,31.18,25.65,32.94S557.27,546,557.27,546l-45.43-1.75-27.92,17.61-2.85-3.36-5.87-4s-7.63,1.09-8.13-.17,7.8-26.91,7.8-26.91l15.78-16.67Z"/></clipPath><clipPath id="clip-path-6" transform="translate(-21.68 -28.59)"><path class="cls-8" d="M517.62,526.63s9.22-2.35,4.53-17.61-9.22-24-6.71-30.51,6.54-7.38,9.89-13.08,3.19-13.07,2.85-22.46-3.35-16.43,2.52-20.12,14.42-5,14.42-5l22.8,2,8-68.24L432.62,353.1l37.72,173L484.93,525s8.76,6.6,13.41,6.62S510.08,538,510.08,538l7.54-11.32"/></clipPath><clipPath id="clip-path-7" transform="translate(-21.68 -28.59)"><path class="cls-4" d="M515.84,544.39l53.59,2.36L561.88,759l-6.2,9.22-7-1.42h-9.79s-16.45,5.11-17.62,5.11l-33.87-.17-5.45-6-9.55-3.35-7.63.67-9.56-57.85L501,547.25l14.82-2.86"/></clipPath><clipPath id="clip-path-8" transform="translate(-21.68 -28.59)"><path class="cls-6" d="M430.1,340c2.64-5.53,5.16-13.58,4.4-17.73s-3.89-7.54-5.66-5.53-7.92,10.69-9.68,12.58-1.88-.63-2.76-4.28-1-4.78-2.64-5.41-1.77,5-1.77,11.7,1.77,10.81,1.77,13.95a69.09,69.09,0,0,1-1.14,9.18l-2.26-.5L395,394.35H375c-4.15-4.53-19-21.25-21.63-22.64s-17.35-4-17.35-4V357.25a11.91,11.91,0,0,0,5.4.5c2.52-.5,4.66-7.41,5.54-16a36.25,36.25,0,0,0-2.14-15.84c11.31-6,11.94-14.59,9.55-19.61s-12.19-11.45-24.39-9.81-13.2,4.9-15.59,8.55-2.18,8.8-2.18,8.8c-4.36,1.51-8.38,6-7.38,15.76s12.07,13.16,12.07,13.16v25.4c-8,1-23.13,3-24.77,4.91s-14.71,23-22.38,36.33-15.09,22.14-16.35,29.18,1.26,16,7.3,16.72,30.55-3.65,30.55-3.65v41.75a3.46,3.46,0,0,0,1.13,2.14l0,10.77s.17,75.78-1,89.7-6.2,99.34-6.2,99.34l4.35.5-.5,4-1.42.42c-1.43.42-3.44,2.94-5.12,7.21a25.5,25.5,0,0,0-1.42,9.22s33.28,7.88,36.46,8.72,8.81,2.6,9.9-.92-3.27-5.28-8.64-9.89-17-11.74-17-11.74l.38-5.15a17,17,0,0,0,4.15-.3l21.8-122.05s8.88,25.65,9.72,31,5.28,91.38,5.28,91.38h4.28v3.69l-1.68,1.42c-1.68,1.43-2.1,4.78-2.6,9.73s1.34,6.79,1.34,6.79,34.46.08,37.89,0,8.13.92,8.39-3.61-11.66-7-17.78-9.64-11.69-5-11.69-5v-3.39h3.52s5.53-97.08,4.28-110.16-9.69-55-10.94-65.63-4-29.43-4-29.43c1.13-.12,1.26-2.39,1.26-2.39l5.91-52.81h51.3l13.21-43H411.74l12.2-35.84-1.38-.5a27.88,27.88,0,0,1,2-6.79C426,348.45,427.46,345.56,430.1,340ZM291.16,435.88a.46.46,0,0,1-.47.46h-6.52a.46.46,0,0,1-.37-.74l6.53-8.49a.46.46,0,0,1,.83.28Z"/></clipPath><clipPath id="clip-path-9" transform="translate(-21.68 -28.59)"><polyline class="cls-7" points="292.41 495.57 354.15 492.55 421.05 584.47 368.07 699.99 361.32 697.76 347.45 697.81 321.96 700.32 302.22 697.76 289.6 695.88 276.36 698.14 249.03 533.17 292.41 495.57"/></clipPath><clipPath id="clip-path-10" transform="translate(-21.68 -28.59)"><path class="cls-6" d="M862.83,401.22c-2.85-19.11-4.53-26-7-27.66s-32.86-8.05-32.86-8.05l-2.35-14.59S835,346.56,837.34,338s4-14.42-1-18.27-10.23-5-12.24-7.55-1-6.7-3.35-9.39-9.39-3.68-12.58-2-8.72,3.86-10.39,4-7.72,13.24.5,20.12A48.87,48.87,0,0,0,791,340.28c-2.27,8.67-2.9,15.34,1.51,16.85a15.63,15.63,0,0,0,8.92,0V369s-3,3-6.09,3.39-18.68-1-32.38-1.63-15.85-1-16.6-1.51-2.77-12.58-2.77-12.58l-1.51.76s-4.15-17.23-6.91-24.9-4.53-12.57-3.15-17.6a23,23,0,0,0-.48-14.84c-1.91-5.41-4-10.19-6.06-9.43s1.26,8,.88,9.18-6.28-9.69-10.06-14.09-5.65-4.27-5.15-1.13,7.54,16.6,7.54,16.6-6.16,6.79-6.16,10.44,5.66,10.94,7.67,12.7,2.52,6.79,2.52,6.79L726,365.05l-1.51.88,2.95,20.4a4,4,0,0,0,2.38,3.14l48.49,21.47s-2.9,64.26-3.4,67S744.34,584.34,744,587.11,755.4,703.68,755.4,703.68h3.65v3.26s-20.75,4.15-23.26,6.17-3.53,7.92,4,7.92h36.72s1.5-6.67-.38-9.81a10,10,0,0,0-3.9-4v-3.52h4.9S775,602.75,775.48,598.05s19.45-48.45,19.45-48.45l11.4,153.57H813v4.19s-20.45,3.19-23.8,5.54-1.68,8,1.34,8.13,38.56,0,38.56,0a16.92,16.92,0,0,0,0-8.13,11.64,11.64,0,0,0-3.69-5.54v-3.85h4.21s-.06-119.29,0-147,.32-51.81-1.44-62.88a90.55,90.55,0,0,0-5-18.86s11.69-21.63,11.82-22.25l.12-.63,15.22,6.79a5.78,5.78,0,0,0,6.16,3.14c4.65-.5,7-9.43,7.67-16.35A202.08,202.08,0,0,0,862.83,401.22Zm-24.14,40.66,3.77-10.06,1.34,10.06Z"/></clipPath><clipPath id="clip-path-11" transform="translate(-21.68 -28.59)"><polyline class="cls-3" points="759.05 703.67 772.25 703.67 805.2 706.44 813.03 703.17 825.44 703.51 836.13 706.95 896.86 574.91 812.36 448.16 711.06 515.56 681.59 669.47 744.96 704.18 759.05 703.67"/></clipPath><clipPath id="clip-path-12" transform="translate(-21.68 -28.59)"><path class="cls-4" d="M724.47,365.93l17.6-8.55,6.29-4.22,15.72,6L801.42,369s14.46-1.26,21.51-3.44,21-2.35,21.79-2.52,44.77,15.43,44.77,15.43-19.79,106-21.13,107-19-23.3-19-23.55,1-3.1,1-3.1-6.88-11.24-6.54-16.85-5.11,0-5.11,0l-3.57,10.06-11.7,23.49s-15.15,17.26-48.44,1.66h0l-4.74-4.91-46.9-82.86,1.13-23.39"/></clipPath></defs><path class="cls-9" d="M24.72,328.77c16.47,117,61.91,272.7,155.24,338.46s233.28,45.4,343.66,67a1675.15,1675.15,0,0,0,216,27.9c62.75,4,133.91.92,176.4-47.9C951,674.12,955.71,613.54,946.23,560s-31-103.94-42.17-157.11c-12-57.13-12.5-118.69-40.33-169.34-20.7-37.66-54.94-65.49-92.19-84.3s-77.7-29.34-118-39c-124-29.79-219.5-60.51-345.76-76.31C263.4,28.37,237,26.76,135.05,45c-48.36,8.66-70.47,70.89-89.4,117.37C24.48,214.35,16.83,272.77,24.72,328.77Z" transform="translate(-21.68 -28.59)"/><rect id="z-2" data-name="z" class="cls-1" x="39.85" width="717.67" height="429.63" rx="26.72"/><g class="cls-10"><circle class="cls-11" cx="69.5" cy="20.97" r="10.81"/><circle class="cls-11" cx="97.67" cy="20.97" r="10.81"/><circle class="cls-11" cx="125.83" cy="20.97" r="10.81"/></g><rect class="cls-12" x="87.02" y="57.77" width="635.88" height="336.24"/><rect class="cls-2" x="559.31" y="337.76" width="181.07" height="123.73" rx="8.13"/><g class="cls-13"><rect class="cls-14" x="549.92" y="324.91" width="219.63" height="26.72"/><circle class="cls-11" cx="586.14" cy="382.69" r="12.07"/><rect class="cls-7" x="609.36" y="367.39" width="81.23" height="8.05" rx="4.02"/><rect class="cls-7" x="609.36" y="381.23" width="81.23" height="8.05" rx="4.02"/><rect class="cls-7" x="609.36" y="394.93" width="81.23" height="8.05" rx="4.02"/><line class="cls-15" x1="575.41" y1="413.29" x2="719.26" y2="413.29"/></g><rect class="cls-16" x="648.25" y="66.68" width="250.69" height="165.56" rx="18.44"/><rect class="cls-7" x="696.18" y="118.27" width="21.19" height="73.94"/><rect class="cls-8" x="722.9" y="142.67" width="21.19" height="49.54"/><rect class="cls-7" x="749.63" y="167.44" width="21.19" height="24.77"/><rect class="cls-8" x="776.36" y="126.82" width="21.19" height="65.39"/><rect class="cls-7" x="803.09" y="148.95" width="21.19" height="43.26"/><rect class="cls-4" x="829.82" y="106.7" width="21.19" height="85.51"/><path class="cls-17" d="M136.87,247.21c12.42,21.55,26.5,44.19,44.59,61.42,6.74,6.42,19.51,22.25,29.18,20,13.14-3.1,19.84-20.13,28.46-30.53,8.24-9.95,13.56-22.61,24.06-30.12a34.48,34.48,0,0,1,26.62-5.67c17.8,3.62,25.91,20.66,32,36.08,4.48,11.24,12.51,22.32,23.19,28.36,3.18,1.8,7.13,3.54,10.84,3.75,3.12.17,6.16.91,9.32,1a30.53,30.53,0,0,0,19.5-5.86c5.64-4.2,9.24-10.05,13-15.83,3-4.59,10.51-8,15.92-8,5.94,0,11.44,3.51,15.24,8.07s5.44,9.83,8.21,14.9A156.09,156.09,0,0,0,446.2,339c8.11,11.61,18.44,23.36,18.44,23.36H136.87Z" transform="translate(-21.68 -28.59)"/><path class="cls-17" d="M136.87,362.38V306.14s36.38,27.35,63.54-23.84c18.8-35.43,47.4-47.42,77.06-17.1s53.86,74.26,66.41,53.26c27.44-45.94,40.26-3.11,56.38,15.36,18.44,21.13,52.87,28.56,52.87,28.56Z" transform="translate(-21.68 -28.59)"/><polyline class="cls-18" points="466.13 333.8 115.19 333.8 115.19 139.42"/><polyline class="cls-18" points="94.05 159.83 104.62 148.73 115.19 137.63 125.76 148.73 136.33 159.83"/><polyline class="cls-18" points="445.55 312.66 456.65 323.23 467.75 333.8 456.65 344.37 445.55 354.94"/><path class="cls-8" d="M966.59,312.29a33,33,0,0,0-.35-3.86l-6.73-1.11L957.23,301l4.48-5.14a33.76,33.76,0,0,0-4.8-6.21l-6.1,3.06-5.59-3.8.6-6.81a34,34,0,0,0-7.32-2.15L935.33,286l-6.76.16-3.47-5.89a34.56,34.56,0,0,0-7.42,2.62l1,6.76-5.38,4.11L907,291a33.62,33.62,0,0,0-4.45,6.47l4.77,4.88-1.92,6.48-6.66,1.5a34.76,34.76,0,0,0-.13,4.1q.08,1.9.33,3.75l6.73,1.13,2.26,6.37-4.51,5.13a34.88,34.88,0,0,0,4.81,6.25l6.11-3.05,5.58,3.82-.63,6.81a34.15,34.15,0,0,0,7.54,2.22L930,340.8l6.76-.18,3.49,5.87a34.13,34.13,0,0,0,7.4-2.65l-1-6.75L952,333l6.27,2.68a33.58,33.58,0,0,0,4.44-6.49l-4.79-4.85,1.89-6.5,6.67-1.51A35.44,35.44,0,0,0,966.59,312.29Zm-23.92,12.52a15.22,15.22,0,1,1,1.39-21.51A15.23,15.23,0,0,1,942.67,324.81Z" transform="translate(-21.68 -28.59)"/><path class="cls-11" d="M949.37,298.66a22.29,22.29,0,1,0-2,31.46A22.32,22.32,0,0,0,949.37,298.66Zm-3.48,29.82a20.12,20.12,0,1,1,1.84-28.38A20.11,20.11,0,0,1,945.89,328.48Z" transform="translate(-21.68 -28.59)"/><path class="cls-4" d="M989.87,367v-.11a3.1,3.1,0,0,0-2.61-2.92l-.43-.07a3.14,3.14,0,0,1-2.43-2l-.32-.91a3.12,3.12,0,0,1,.58-3.1l.29-.33a3.1,3.1,0,0,0,.15-3.91l-.19-.25a3.12,3.12,0,0,0-3.83-.83l-.38.2a3.1,3.1,0,0,1-3.15-.21l-.8-.54a3.12,3.12,0,0,1-1.35-2.86l0-.43a3.11,3.11,0,0,0-2.21-3.27l-.05,0a3.13,3.13,0,0,0-3.65,1.55l-.2.38a3.14,3.14,0,0,1-2.69,1.67l-1,0a3.11,3.11,0,0,1-2.75-1.53l-.23-.38a3.12,3.12,0,0,0-3.72-1.36l-.19.07a3.13,3.13,0,0,0-2,3.4l.06.42a3.12,3.12,0,0,1-1.18,2.93l-.78.59a3.12,3.12,0,0,1-3.13.39l-.4-.18a3.11,3.11,0,0,0-3.77,1.05l-.18.26a3.09,3.09,0,0,0,.38,3.89l.3.31a3.13,3.13,0,0,1,.76,3.07l-.27.92a3.14,3.14,0,0,1-2.31,2.16l-.43.1a3.11,3.11,0,0,0-2.44,3.06,2.44,2.44,0,0,1,0,.27v.07a3.1,3.1,0,0,0,2.6,2.9l.43.07a3.14,3.14,0,0,1,2.42,2l.32.91a3.1,3.1,0,0,1-.6,3.1l-.28.33a3.09,3.09,0,0,0-.17,3.91l.19.26a3.1,3.1,0,0,0,3.83.84l.39-.19a3.12,3.12,0,0,1,3.15.22l.8.54a3.14,3.14,0,0,1,1.34,2.86l0,.44a3.1,3.1,0,0,0,2.16,3.26l.3.09a3.1,3.1,0,0,0,3.59-1.57l.2-.39a3.15,3.15,0,0,1,2.68-1.68l1,0a3.11,3.11,0,0,1,2.77,1.52l.22.37a3.12,3.12,0,0,0,3.74,1.35l.18-.07a3.12,3.12,0,0,0,2-3.4l-.07-.42a3.16,3.16,0,0,1,1.18-2.94l.77-.59a3.13,3.13,0,0,1,3.13-.4l.4.17a3.1,3.1,0,0,0,3.77-1.05l.17-.25a3.09,3.09,0,0,0-.39-3.91l-.3-.3a3.12,3.12,0,0,1-.77-3.06l.27-.93a3.12,3.12,0,0,1,2.3-2.17l.42-.1a3.09,3.09,0,0,0,2.43-3.08ZM966.61,381.9a14.13,14.13,0,1,1,14.12-14.12A14.12,14.12,0,0,1,966.61,381.9Z" transform="translate(-21.68 -28.59)"/><path class="cls-4" d="M929.72,371.06V371a2,2,0,0,0-1.69-1.89l-.28,0a2,2,0,0,1-1.58-1.31l-.21-.59a2,2,0,0,1,.38-2l.19-.22a2,2,0,0,0,.1-2.53,1,1,0,0,0-.13-.16,2,2,0,0,0-2.48-.54l-.25.12a2,2,0,0,1-2-.13l-.52-.35a2,2,0,0,1-.88-1.86l0-.28a2,2,0,0,0-1.43-2.12h0a2,2,0,0,0-2.36,1l-.13.24a2,2,0,0,1-1.75,1.08l-.62,0a2,2,0,0,1-1.79-1l-.15-.25a2,2,0,0,0-2.42-.88l-.11,0a2,2,0,0,0-1.33,2.21l0,.27a2,2,0,0,1-.77,1.9l-.5.38a2,2,0,0,1-2,.25l-.26-.11a2,2,0,0,0-2.45.68,1,1,0,0,0-.11.17,2,2,0,0,0,.24,2.53l.19.19a2,2,0,0,1,.5,2l-.18.61a2,2,0,0,1-1.49,1.39l-.29.07a2,2,0,0,0-1.58,2,1,1,0,0,1,0,.17v0a2,2,0,0,0,1.68,1.89l.28,0a2,2,0,0,1,1.57,1.32l.21.59a2,2,0,0,1-.38,2l-.19.21a2,2,0,0,0-.11,2.54l.13.17a2,2,0,0,0,2.48.55l.25-.13a2,2,0,0,1,2,.14l.52.36a2,2,0,0,1,.87,1.85l0,.29a2,2,0,0,0,1.4,2.11l.19.06a2,2,0,0,0,2.33-1l.13-.25a2,2,0,0,1,1.74-1.09l.63,0a2,2,0,0,1,1.79,1l.14.24a2,2,0,0,0,2.43.88l.12,0a2,2,0,0,0,1.31-2.2l0-.28a2,2,0,0,1,.77-1.9l.49-.39a2,2,0,0,1,2-.25l.26.11a2,2,0,0,0,2.44-.69l.11-.16a2,2,0,0,0-.25-2.54l-.19-.19a2,2,0,0,1-.51-2l.18-.6a2,2,0,0,1,1.49-1.41l.28-.06a2,2,0,0,0,1.57-2Zm-15.09,9.65a9.17,9.17,0,1,1,9.16-9.16A9.16,9.16,0,0,1,914.63,380.71Z" transform="translate(-21.68 -28.59)"/><circle class="cls-19" cx="895.05" cy="74.66" r="22.01"/><circle class="cls-19" cx="895.05" cy="74.66" r="34.08"/><circle class="cls-19" cx="895.05" cy="74.66" r="45.64"/><circle class="cls-8" cx="895.05" cy="74.66" r="7.92"/><polyline class="cls-20" points="906.04 77.54 900.54 76.04 895.05 74.53 899.39 70.84 903.73 67.16"/><polyline class="cls-20" points="971.71 62.96 966.22 61.46 960.72 59.95 965.06 56.26 969.4 52.58"/><polyline class="cls-20" points="966.79 64.06 961.3 62.55 955.8 61.04 960.14 57.35 964.49 53.67"/><polyline class="cls-20" points="961.88 65.15 956.38 63.64 950.89 62.14 955.23 58.45 959.57 54.76"/><line class="cls-20" x1="895.89" y1="74.35" x2="968.5" y2="58.23"/><circle class="cls-7" cx="501.97" cy="206.31" r="3.69"/><circle class="cls-7" cx="555.63" cy="247.62" r="3.69"/><circle class="cls-7" cx="635.1" cy="204.37" r="3.69"/><circle class="cls-7" cx="597.2" cy="153.08" r="3.69"/><circle class="cls-7" cx="616.99" cy="251.31" r="3.69"/><circle class="cls-7" cx="559.31" cy="289.87" r="3.69"/><circle class="cls-7" cx="507.34" cy="267.67" r="3.69"/><polyline class="cls-21" points="442.96 251.31 501.97 206.31 555.63 247.62 597.2 153.08 635.1 204.37 683.04 144.2"/><polyline class="cls-21" points="442.96 284.77 507.34 267.67 559.31 289.87 616.99 251.31 681.7 251.31"/><path class="cls-7" d="M357.42,238.47c0-11.07-7.64-20-17.07-20s-17.1,9-17.07,20.11a21.89,21.89,0,0,0,5,14.08,23.85,23.85,0,0,1,5,10.11l1.37,6h11.19l1.31-5.66a23.87,23.87,0,0,1,5.17-10.29A21.8,21.8,0,0,0,357.42,238.47Z" transform="translate(-21.68 -28.59)"/><path class="cls-8" d="M342.93,275.16h-5.45a3,3,0,0,1-3-2.8l-.46-6.05,12.36-.09-.53,6.14A3,3,0,0,1,342.93,275.16Z" transform="translate(-21.68 -28.59)"/><path class="cls-22" d="M345.31,268.86c-3.45.16-6.92,0-10.37.13-.31,0-.28.5,0,.51,3.45.13,6.91-.1,10.37,0C345.72,269.53,345.7,268.84,345.31,268.86Z" transform="translate(-21.68 -28.59)"/><path class="cls-22" d="M345.31,270.48c-3.45.16-6.92,0-10.37.14-.31,0-.28.5,0,.51,3.45.12,6.91-.11,10.37,0C345.72,271.15,345.7,270.47,345.31,270.48Z" transform="translate(-21.68 -28.59)"/><path class="cls-23" d="M347.72,250.23a4.74,4.74,0,0,1-1.29-1.65,6.16,6.16,0,0,0,1-3c.07-.63.09-1.27.1-1.9a1.73,1.73,0,0,0-.55-1.52c-.43-.34-1,0-1.33.3A3.55,3.55,0,0,0,345,244a7.43,7.43,0,0,0-.1,3.25,5.84,5.84,0,0,0,.29,1.09,2.5,2.5,0,0,1-.82.47c-.94.33-1.65-.25-2.08-1.12-.07-.14-.13-.29-.2-.44s.14-.43.21-.64a14.06,14.06,0,0,0,.57-3.17c.07-.89.09-1.95-.7-2.48a.5.5,0,0,0-.7.2,7.09,7.09,0,0,0-.46,6,13.94,13.94,0,0,1-.7,1.52c-.29.54-.85,1.37-1.52,1.27s-1.12-.95-1.43-1.47a6.16,6.16,0,0,1-.55-1.23c.08-.22.15-.45.22-.68a13.34,13.34,0,0,0,.49-2.81c0-.79.08-1.91-.72-2.29a.49.49,0,0,0-.7.2,8.53,8.53,0,0,0-.4,5.35c0,.06,0,.12.05.18a11.67,11.67,0,0,1-2.12,3.63c-.4.48.23,1.18.65.71a12.31,12.31,0,0,0,2-3,7.39,7.39,0,0,0,.52.91,2.93,2.93,0,0,0,2.12,1.57c.87.05,1.59-.75,2.06-1.44a8.13,8.13,0,0,0,.61-1.08,2.73,2.73,0,0,0,1.9,1.46,2.91,2.91,0,0,0,2.17-.61,6.67,6.67,0,0,0,1.42,1.82C347.66,251.79,348.39,250.76,347.72,250.23Zm-5.88-7.71a8.68,8.68,0,0,1-.08,1.26,11.82,11.82,0,0,1-.23,1.45A5.44,5.44,0,0,1,341.84,242.52Zm4,2.78a5.51,5.51,0,0,1,.28-1.34,3.53,3.53,0,0,1,.25-.56l.08-.11a.41.41,0,0,1,0,.14,10.51,10.51,0,0,1-.35,3.4,2.5,2.5,0,0,1-.15.38A6.79,6.79,0,0,1,345.83,245.3Z" transform="translate(-21.68 -28.59)"/><path class="cls-23" d="M348.69,247.51c-1.82,6-3.73,12-5.78,17.88-.25.7.76,1.14,1,.43,2-5.92,3.95-11.89,5.65-17.93C349.74,247.26,348.88,246.88,348.69,247.51Z" transform="translate(-21.68 -28.59)"/><path class="cls-23" d="M332.18,247.13c1.45,6.11,2.8,12.26,4,18.44a.55.55,0,1,0,1.07-.22c-1.22-6.18-2.58-12.32-4.14-18.41A.47.47,0,1,0,332.18,247.13Z" transform="translate(-21.68 -28.59)"/><line class="cls-21" x1="294.13" y1="186.93" x2="300.14" y2="193.64"/><line class="cls-21" x1="287.48" y1="199.85" x2="296.42" y2="200.96"/><line class="cls-21" x1="286.13" y1="213.34" x2="295.11" y2="212.71"/><line class="cls-21" x1="342.99" y1="187.2" x2="336.98" y2="193.91"/><line class="cls-21" x1="349.64" y1="200.12" x2="340.7" y2="201.23"/><line class="cls-21" x1="350.99" y1="213.61" x2="342" y2="212.98"/><text class="cls-24" transform="translate(255.79 159.52)">CRM</text><rect class="cls-5" x="498.29" y="91.4" width="86.93" height="10.84" rx="5.42"/><rect class="cls-5" x="498.29" y="108.74" width="121.89" height="10.84" rx="5.42"/><rect class="cls-5" x="498.29" y="126.08" width="96.99" height="10.84" rx="5.42"/><rect class="cls-5" x="151.57" y="75.88" width="70.42" height="50.2" rx="5.96"/><g class="cls-25"><rect class="cls-22" x="156.6" y="85.94" width="60.19" height="36.38" rx="4.6"/><rect class="cls-5" x="165.67" y="89.23" width="4.11" height="4.11"/><rect class="cls-5" x="172.02" y="89.23" width="4.11" height="4.11"/><rect class="cls-5" x="178.37" y="89.23" width="4.11" height="4.11"/><rect class="cls-5" x="184.72" y="89.23" width="4.11" height="4.11"/><rect class="cls-7" x="191.07" y="89.23" width="4.11" height="4.11"/><rect class="cls-7" x="197.42" y="89.23" width="4.11" height="4.11"/><rect class="cls-7" x="203.77" y="89.23" width="4.11" height="4.11"/><rect class="cls-5" x="165.67" y="94.88" width="4.11" height="4.11"/><rect class="cls-5" x="172.02" y="94.88" width="4.11" height="4.11"/><rect class="cls-5" x="178.37" y="94.88" width="4.11" height="4.11"/><rect class="cls-5" x="184.72" y="94.88" width="4.11" height="4.11"/><rect class="cls-7" x="191.07" y="94.88" width="4.11" height="4.11"/><rect class="cls-7" x="197.42" y="94.88" width="4.11" height="4.11"/><rect class="cls-7" x="203.77" y="94.88" width="4.11" height="4.11"/><rect class="cls-5" x="165.67" y="100.54" width="4.11" height="4.11"/><rect class="cls-5" x="172.02" y="100.54" width="4.11" height="4.11"/><rect class="cls-5" x="178.37" y="100.54" width="4.11" height="4.11"/><rect class="cls-5" x="184.72" y="100.54" width="4.11" height="4.11"/><rect class="cls-7" x="191.07" y="100.54" width="4.11" height="4.11"/><rect class="cls-7" x="197.42" y="100.54" width="4.11" height="4.11"/><rect class="cls-7" x="203.77" y="100.54" width="4.11" height="4.11"/><rect class="cls-5" x="165.67" y="106.2" width="4.11" height="4.11"/><rect class="cls-5" x="172.02" y="106.2" width="4.11" height="4.11"/><rect class="cls-5" x="178.37" y="106.2" width="4.11" height="4.11"/><rect class="cls-5" x="184.72" y="106.2" width="4.11" height="4.11"/><rect class="cls-7" x="191.07" y="106.2" width="4.11" height="4.11"/><rect class="cls-7" x="197.42" y="106.2" width="4.11" height="4.11"/><rect class="cls-7" x="203.77" y="106.2" width="4.11" height="4.11"/><rect class="cls-5" x="165.67" y="111.86" width="4.11" height="4.11"/><rect class="cls-5" x="172.02" y="111.86" width="4.11" height="4.11"/><rect class="cls-5" x="178.37" y="111.86" width="4.11" height="4.11"/></g><rect class="cls-5" x="158.27" y="70.51" width="5.87" height="9.39"/><rect class="cls-5" x="168.5" y="70.51" width="5.87" height="9.39"/><rect class="cls-5" x="178.73" y="70.51" width="5.87" height="9.39"/><rect class="cls-5" x="188.96" y="70.51" width="5.87" height="9.39"/><rect class="cls-5" x="199.18" y="70.51" width="5.87" height="9.39"/><rect class="cls-5" x="209.41" y="70.51" width="5.87" height="9.39"/><path id="z-3" data-name="z" class="cls-26" d="M779.19,160.09V431.91a26.31,26.31,0,0,1-26.31,26.31H148.94" transform="translate(-21.68 -28.59)"/><circle class="cls-27" cx="407.08" cy="512.12" r="24.37"/><path class="cls-4" d="M467.1,564.86a50.72,50.72,0,0,1-8.63-5.62,26.47,26.47,0,0,1-3.6-3.58c-.67-.81-2.52-4.45-3.48-4.81-.47-.17-2.37,2.37-4.22,5-2.2,2.32-4.32,4.68-4.06,5.1.53.88,4.46,2,5.39,2.48a28.07,28.07,0,0,1,4.22,2.84,51.15,51.15,0,0,1,7.18,7.38c4.47,5.41,8.62,11.32,14.58,15a10.81,10.81,0,0,0,6,1.94,8.24,8.24,0,0,0,7.22-8.79,10.93,10.93,0,0,0-3.07-5.53C479.88,571.11,473.28,568.19,467.1,564.86Z" transform="translate(-21.68 -28.59)"/><path class="cls-6" d="M535.48,459.73V443s3.1,2.34,6.28,1,5.7-6,5.87-11.57-2.51-14.58-2.51-14.58,12.07-7.88,13.07-15.76-2.51-16.94-8.72-20.29-14.58-.67-17.1,2.35a31.58,31.58,0,0,0-4,6.37s-11.74-.84-15.09,1.84-7.54,22.47-14.42,31.19S476,446,471.18,463.25s.33,43.09,6.2,52,7.55,9.72,7.55,9.72l-11.24,28.17,1.51,1.34-1.59,4.19s-7.46.34-11.49,1.43-4.19,3.52-5,7.46.68,9.3,3.69,10.06,4.7-.34,4.87-4,1.76-5.61,3.6-5.87,8.05.26,9.39-1.42,1.93-6.79,2.18-7.29l.25-.51,1.93.59,15.34-27.5s13.5,1.09,19.28-4.94c0,0,1.17,2.93.25,8.8a48.7,48.7,0,0,1-4.94,15.93c-2.52,4.52-11.41,16.18-18.45,57.76s-20.79,127.75-25.15,152.23l3.11,1-1.09,8s-12.75,4.19-16.43,5.53-4,3.36-3.19,4.78,6.87.67,10.23.59,20.54-.17,20.54-.17a9,9,0,0,0,.5-5.37c-.76-2.51-2-3-1.76-5.44a38.91,38.91,0,0,1,.75-4.53l3.61.92,40.82-146.7L535,766.8h4a32,32,0,0,1-.56,5.72,38.28,38.28,0,0,0-1,7.42l.13.63,32.71.14s2.44-.75,1.93-2.51-2.26-2.18-5.36-2.52-18.11-4.1-18.11-4.1V766.8h3.77s4.11-82.74,6.12-113.17,4-57.59,2.27-76.45-2.52-22.89-3.27-26.41-.26-8,1-15.84,4.78-17.36,4.15-25-1.88-8.55-1.51-9.43,7.8,6.42,15.47,11.95,11.44,10.06,15.59,5.66,26.41-32.19,26.41-32.19l-1.64-1.76s1.89-4.53,6.16-5.16,11.82-1.88,11.7-6.29-3.15-8.29-2.89-9.93,7.79-6.92,8.92-10.18-1-3.27-3.89-1-17,13.71-21.25,18.48a60.43,60.43,0,0,0-5.91,7.42L589.55,497.2S567.67,463.76,535.48,459.73Z" transform="translate(-21.68 -28.59)"/><g class="cls-28"><path class="cls-7" d="M523.66,459.73H543s60.36-8.8,61.11-8.3,5.79,26,5.79,26l8.8,8.43s26.91,31.18,25.65,32.94S557.27,546,557.27,546l-45.43-1.75-27.92,17.61-2.85-3.36-5.87-4s-7.63,1.09-8.13-.17,7.8-26.91,7.8-26.91l15.78-16.67Z" transform="translate(-21.68 -28.59)"/><g class="cls-29"><path class="cls-23" d="M515.36,534.42s11.56-6.79,12.57-14.08-5.53-16.09-8.3-25.65-.75-15.09,3.27-21.38a151.84,151.84,0,0,0,7.55-13.58l2.26-4.78L500,466Z" transform="translate(-21.68 -28.59)"/></g><path class="cls-8" d="M517.62,526.63s9.22-2.35,4.53-17.61-9.22-24-6.71-30.51,6.54-7.38,9.89-13.08,3.19-13.07,2.85-22.46-3.35-16.43,2.52-20.12,14.42-5,14.42-5l22.8,2,8-68.24L432.62,353.1l37.72,173L484.93,525s8.76,6.6,13.41,6.62S510.08,538,510.08,538l7.54-11.32" transform="translate(-21.68 -28.59)"/><g class="cls-30"><path class="cls-5" d="M525,520.93s-13.08,5-20.79,1-18.45-12.4-21.46-29.84-3-39.23,8.38-51.64S508.57,425,513.6,410.27s9-24.81,9-24.81-39.23-2.35-39.9-1-49.63,100.93-52.31,110.66-.65,35.88,4.2,43.92,79.29-2.68,79.29-2.68Z" transform="translate(-21.68 -28.59)"/></g><path class="cls-4" d="M515.84,544.39l53.59,2.36L561.88,759l-6.2,9.22-7-1.42h-9.79s-16.45,5.11-17.62,5.11l-33.87-.17-5.45-6-9.55-3.35-7.63.67-9.56-57.85L501,547.25l14.82-2.86" transform="translate(-21.68 -28.59)"/><g class="cls-31"><polyline class="cls-14" points="460.31 737.12 502.98 569.97 504.8 592.29 491.92 701.74 474.31 746.51 459.77 740.01 460.31 737.12"/></g><path class="cls-11" d="M471.35,770.32l9.95,1.45,70.38-.36s44.57-4.36,45.91,1.34-76.78,19-87.35,19.62-89.69-1.85-89.19-4.36,19.11-21.8,19.11-21.8l31.19,4.11" transform="translate(-21.68 -28.59)"/></g><path class="cls-6" d="M430.1,340c2.64-5.53,5.16-13.58,4.4-17.73s-3.89-7.54-5.66-5.53-7.92,10.69-9.68,12.58-1.88-.63-2.76-4.28-1-4.78-2.64-5.41-1.77,5-1.77,11.7,1.77,10.81,1.77,13.95a69.09,69.09,0,0,1-1.14,9.18l-2.26-.5L395,394.35H375c-4.15-4.53-19-21.25-21.63-22.64s-17.35-4-17.35-4V357.25a11.91,11.91,0,0,0,5.4.5c2.52-.5,4.66-7.41,5.54-16a36.25,36.25,0,0,0-2.14-15.84c11.31-6,11.94-14.59,9.55-19.61s-12.19-11.45-24.39-9.81-13.2,4.9-15.59,8.55-2.18,8.8-2.18,8.8c-4.36,1.51-8.38,6-7.38,15.76s12.07,13.16,12.07,13.16v25.4c-8,1-23.13,3-24.77,4.91s-14.71,23-22.38,36.33-15.09,22.14-16.35,29.18,1.26,16,7.3,16.72,30.55-3.65,30.55-3.65v41.75a3.46,3.46,0,0,0,1.13,2.14l0,10.77s.17,75.78-1,89.7-6.2,99.34-6.2,99.34l4.35.5-.5,4-1.42.42c-1.43.42-3.44,2.94-5.12,7.21a25.5,25.5,0,0,0-1.42,9.22s33.28,7.88,36.46,8.72,8.81,2.6,9.9-.92-3.27-5.28-8.64-9.89-17-11.74-17-11.74l.38-5.15a17,17,0,0,0,4.15-.3l21.8-122.05s8.88,25.65,9.72,31,5.28,91.38,5.28,91.38h4.28v3.69l-1.68,1.42c-1.68,1.43-2.1,4.78-2.6,9.73s1.34,6.79,1.34,6.79,34.46.08,37.89,0,8.13.92,8.39-3.61-11.66-7-17.78-9.64-11.69-5-11.69-5v-3.39h3.52s5.53-97.08,4.28-110.16-9.69-55-10.94-65.63-4-29.43-4-29.43c1.13-.12,1.26-2.39,1.26-2.39l5.91-52.81h51.3l13.21-43H411.74l12.2-35.84-1.38-.5a27.88,27.88,0,0,1,2-6.79C426,348.45,427.46,345.56,430.1,340ZM291.16,435.88a.46.46,0,0,1-.47.46h-6.52a.46.46,0,0,1-.37-.74l6.53-8.49a.46.46,0,0,1,.83.28Z" transform="translate(-21.68 -28.59)"/><g class="cls-32"><path class="cls-33" d="M316,348.75a43.92,43.92,0,0,0,13,12.17,61.66,61.66,0,0,0,6.57,3.73c.89.43,2.32,1.4,2.61-.07.24-1.19-.82-2.42-1.19-3.48-.22-.65-.56-3.6-1.28-3.76-.2,0-12.63-3.51-18.34-13.7s-1.27.95-1.27,1a5,5,0,0,1-.35.91c-.11.35-.23.7-.34,1a2.27,2.27,0,0,0,.5,2Z" transform="translate(-21.68 -28.59)"/><polyline class="cls-8" points="295.25 339.6 305.31 350.67 314.37 339.1 334.99 338.09 384.61 324.18 389.81 323.84 390.94 325.9 400.88 329.42 415.3 332.39 424.35 371.79 319.9 491.5 212.26 467.36 192.65 361.73 278.65 330.55 295.25 339.6"/><path class="cls-14" d="M289.1,699.9a20.79,20.79,0,0,0,12.74,3c7.55-.63,16.73.88,18.49,1.89s16.47,26,16.47,26l-63.88-6.29L264,707.32Z" transform="translate(-21.68 -28.59)"/><path class="cls-6" d="M320.12,445.48v-9.72s7.38-.67,9.05-1.68,8.05-6.2,11.23-7.54,14.76-2,14.76-2,3,4,1.84,6.21-7.54,6.54-7.54,6.54-7.71,8.71-8.89,8.71S320.12,445.48,320.12,445.48Z" transform="translate(-21.68 -28.59)"/><path class="cls-3" d="M316.93,342.79l2-.08.34-3s-5.37-5.2-5.37-8.38,2.35-7.05,5.37-5.54S323,331,323,331s1.17-12.41,5.7-12.91,11.57-.17,16.18,7.88,27.24-5,27.24-5L362,297.44l-43.42-5.53-37.89,30.34s5.53,23.14,6.2,24.15,30-3.61,30-3.61" transform="translate(-21.68 -28.59)"/><path class="cls-34" d="M336.88,433.07l11.74-39.39,26.41.67h52.05L414.85,450l-53.53-12.66-11.86-.08s4.36-3.86,3.69-7.13-5.87-3.86-8.64-2.85S336.88,433.07,336.88,433.07Z" transform="translate(-21.68 -28.59)"/><path class="cls-4" d="M291.28,451.68l28.59-3.77v-2.43l20.7.5s-3.18,2.27-10.9,3.69-45,8.05-45,8.05l6.62-6" transform="translate(-21.68 -28.59)"/><polygon class="cls-4" points="269.47 397.7 286.95 376.19 286.95 381.69 269.47 405.74 269.47 397.7"/><polyline class="cls-7" points="270.73 466.98 332.47 463.96 399.37 555.88 346.39 671.4 339.64 669.18 325.77 669.22 300.28 671.73 280.54 669.18 267.92 667.29 254.68 669.55 227.35 504.58 270.73 466.98"/><g class="cls-35"><path class="cls-23" d="M294.3,699.15s6.79-95.06,6.79-108.64,2-79.05,2-79.05L369.75,500,347.87,471.3,211.31,484.13l47.53,230.11Z" transform="translate(-21.68 -28.59)"/><path class="cls-23" d="M328.17,575.42l6.12-49s14.33,64.13,15.08,78.46,3.78,98.08,3.78,98.08l-20.37.76-4.61-128.26" transform="translate(-21.68 -28.59)"/></g><path class="cls-14" d="M347.45,701.5l13.87-.34,28.1,6,5.47,16.92-54.07-2.39s-9-13.84-8.8-14,13.25-8.83,15.43-6.14" transform="translate(-21.68 -28.59)"/></g><path class="cls-6" d="M862.83,401.22c-2.85-19.11-4.53-26-7-27.66s-32.86-8.05-32.86-8.05l-2.35-14.59S835,346.56,837.34,338s4-14.42-1-18.27-10.23-5-12.24-7.55-1-6.7-3.35-9.39-9.39-3.68-12.58-2-8.72,3.86-10.39,4-7.72,13.24.5,20.12A48.87,48.87,0,0,0,791,340.28c-2.27,8.67-2.9,15.34,1.51,16.85a15.63,15.63,0,0,0,8.92,0V369s-3,3-6.09,3.39-18.68-1-32.38-1.63-15.85-1-16.6-1.51-2.77-12.58-2.77-12.58l-1.51.76s-4.15-17.23-6.91-24.9-4.53-12.57-3.15-17.6a23,23,0,0,0-.48-14.84c-1.91-5.41-4-10.19-6.06-9.43s1.26,8,.88,9.18-6.28-9.69-10.06-14.09-5.65-4.27-5.15-1.13,7.54,16.6,7.54,16.6-6.16,6.79-6.16,10.44,5.66,10.94,7.67,12.7,2.52,6.79,2.52,6.79L726,365.05l-1.51.88,2.95,20.4a4,4,0,0,0,2.38,3.14l48.49,21.47s-2.9,64.26-3.4,67S744.34,584.34,744,587.11,755.4,703.68,755.4,703.68h3.65v3.26s-20.75,4.15-23.26,6.17-3.53,7.92,4,7.92h36.72s1.5-6.67-.38-9.81a10,10,0,0,0-3.9-4v-3.52h4.9S775,602.75,775.48,598.05s19.45-48.45,19.45-48.45l11.4,153.57H813v4.19s-20.45,3.19-23.8,5.54-1.68,8,1.34,8.13,38.56,0,38.56,0a16.92,16.92,0,0,0,0-8.13,11.64,11.64,0,0,0-3.69-5.54v-3.85h4.21s-.06-119.29,0-147,.32-51.81-1.44-62.88a90.55,90.55,0,0,0-5-18.86s11.69-21.63,11.82-22.25l.12-.63,15.22,6.79a5.78,5.78,0,0,0,6.16,3.14c4.65-.5,7-9.43,7.67-16.35A202.08,202.08,0,0,0,862.83,401.22Zm-24.14,40.66,3.77-10.06,1.34,10.06Z" transform="translate(-21.68 -28.59)"/><g class="cls-36"><path class="cls-34" d="M798.28,324.94s7.88,4.52,15.42,4.35,9.23.17,8.22,3.19a42.68,42.68,0,0,0-1.34,4.69s7.38-2.51,7.71.34-2.68,4.86-4.19,5.2-2.85.67-2.85.67l-2,8.72,1.34-1.18s11.23,2.68,12.4,2.68S854.11,309.85,853.1,309s-24.47-15.26-28.16-15.26-36.45,3.52-37,4.53-2.06,16.09-2.06,18.44,7,7.88,12.41,8.22" transform="translate(-21.68 -28.59)"/><polyline class="cls-3" points="737.37 675.09 750.57 675.09 783.51 677.85 791.35 674.58 803.76 674.92 814.45 678.36 875.18 546.33 790.68 419.57 689.38 486.97 659.91 640.88 723.28 675.59 737.37 675.09"/><g class="cls-37"><polyline class="cls-34" points="791.35 674.58 787.16 486.97 773.25 521.01 766.25 658.99 777.5 677.35 791.35 674.58"/></g><path class="cls-4" d="M724.47,365.93l17.6-8.55,6.29-4.22,15.72,6L801.42,369s14.46-1.26,21.51-3.44,21-2.35,21.79-2.52,44.77,15.43,44.77,15.43-19.79,106-21.13,107-19-23.3-19-23.55,1-3.1,1-3.1-6.88-11.24-6.54-16.85-5.11,0-5.11,0l-3.57,10.06-11.7,23.49s-15.15,17.26-48.44,1.66h0l-4.74-4.91-46.9-82.86,1.13-23.39" transform="translate(-21.68 -28.59)"/><g class="cls-38"><path class="cls-3" d="M842.46,431.82l2.26-5.95s-.5,11.73,4.53,21.79,6.2,11.51,11.57,10.62,10.39,8,10.39,8l-21.29.17L842,441.88l.42-10.06" transform="translate(-21.68 -28.59)"/></g><path class="cls-34" d="M759.05,706.94l13.2.26s17.65-.51,18.15-.51,22.63.67,22.63.67h12.41L840,705.69l10.06,17.77L722,726.14l4.86-17.94,32.19-1.26" transform="translate(-21.68 -28.59)"/></g><line class="cls-26" x1="553.61" y1="40.58" x2="755.98" y2="40.58"/><path class="cls-26" d="M575.29,69.17" transform="translate(-21.68 -28.59)"/><path class="cls-26" d="M536.73,69.17" transform="translate(-21.68 -28.59)"/><line class="cls-26" x1="39.85" y1="40.58" x2="515.05" y2="40.58"/></svg>